<?xml version="1.0" encoding="UTF-8"?>
<svg id="Capa_2" data-name="Capa 2" xmlns="http://www.w3.org/2000/svg" viewBox="0 0 300.55 91.01">
  <defs>
    <style>
      .cls-1 {
        fill: #f0f0f0;
      }
    </style>
  </defs>
  <g id="Capa_1-2" data-name="Capa 1">
    <g>
      <g>
        <path class="cls-1" d="M107.77,84.97l-3.37,4.15h3.37v1.45h-5.37v-1.35l3.34-4.16h-3.34v-1.45h5.37v1.36Z"/>
        <path class="cls-1" d="M112.44,85.06h-.35l-1.93,5.51h-1.79l2.55-6.97h2.75l2.53,6.97h-1.79l-1.96-5.51Zm-2.21,2.67h4.06v1.45h-4.06v-1.45Z"/>
        <path class="cls-1" d="M116.85,83.6h1.73v2.71h2.63v-2.71h1.73v6.97h-1.73v-2.81h-2.63v2.81h-1.73v-6.97Z"/>
        <path class="cls-1" d="M130.16,83.6v6.97h-1.74l-2.6-4.22v4.22h-1.73v-6.97h1.74l2.6,4.25v-4.25h1.73Z"/>
        <path class="cls-1" d="M131.3,83.6h5.23v1.45h-3.49v1.3h2.61v1.35h-2.61v2.86h-1.73v-6.97Z"/>
        <path class="cls-1" d="M140.14,85.06h-.35l-1.93,5.51h-1.79l2.55-6.97h2.75l2.53,6.97h-1.79l-1.96-5.51Zm-2.21,2.67h4.06v1.45h-4.06v-1.45Z"/>
        <path class="cls-1" d="M144.05,87.09c0-.52,.08-.99,.25-1.43,.17-.43,.41-.81,.72-1.13,.31-.32,.68-.56,1.11-.74,.43-.17,.91-.26,1.42-.26,.78,0,1.45,.19,2.01,.58s.96,.92,1.19,1.6l-1.5,.33c-.12-.25-.26-.45-.43-.6s-.36-.27-.57-.34c-.21-.07-.45-.11-.71-.11-.37,0-.69,.09-.96,.28-.27,.19-.47,.44-.61,.75-.14,.32-.21,.67-.21,1.07s.07,.76,.21,1.08c.14,.31,.34,.56,.61,.75,.26,.18,.58,.27,.96,.27,.26,0,.5-.04,.73-.11s.43-.2,.61-.38,.33-.41,.46-.69l1.46,.3c-.24,.74-.64,1.32-1.2,1.73-.56,.41-1.25,.61-2.05,.61-.52,0-.99-.09-1.42-.26-.43-.17-.8-.42-1.11-.73-.31-.31-.55-.69-.72-1.12s-.25-.91-.25-1.44Z"/>
        <path class="cls-1" d="M151.13,83.6h6.06v1.45h-2.17v5.51h-1.73v-5.51h-2.16v-1.45Z"/>
        <path class="cls-1" d="M157.88,83.6h1.73v4.3c0,.27,.05,.49,.16,.68s.25,.33,.45,.43c.19,.1,.42,.14,.68,.14s.5-.05,.7-.14,.35-.24,.46-.43,.16-.42,.16-.68v-4.3h1.73v4.14c0,.48-.08,.91-.25,1.27-.17,.36-.39,.66-.68,.91s-.62,.42-.99,.54c-.37,.12-.76,.18-1.17,.18-.54,0-1.04-.11-1.49-.32-.45-.22-.81-.54-1.08-.97-.27-.43-.41-.96-.41-1.61v-4.14Z"/>
        <path class="cls-1" d="M168.29,83.6c.58,0,1.06,.1,1.44,.31s.67,.49,.86,.83c.19,.35,.28,.72,.28,1.12,0,.28-.05,.55-.15,.83s-.26,.52-.47,.74c-.21,.22-.48,.39-.8,.52s-.71,.19-1.15,.19h-1.47v2.42h-1.73v-6.97h3.21Zm.82,2.27c0-.25-.08-.45-.23-.6-.15-.15-.38-.22-.7-.22h-1.36v1.64h1.36c.21,0,.38-.03,.51-.09,.14-.06,.24-.16,.31-.28,.07-.13,.1-.28,.1-.45Zm.06,1.68l1.83,3.02h-1.91l-1.73-3.02h1.81Z"/>
        <path class="cls-1" d="M171.84,83.6h1.73v6.97h-1.73v-6.97Z"/>
        <path class="cls-1" d="M180.8,83.6v6.97h-1.74l-2.6-4.22v4.22h-1.73v-6.97h1.74l2.6,4.25v-4.25h1.73Z"/>
        <path class="cls-1" d="M186.83,85.89c-.17-.31-.38-.53-.64-.67-.26-.14-.56-.21-.91-.21s-.68,.09-.96,.27-.5,.43-.65,.75c-.16,.31-.23,.67-.23,1.06,0,.42,.08,.78,.23,1.09,.15,.31,.37,.55,.66,.73,.29,.17,.64,.26,1.04,.26,.23,0,.44-.04,.64-.12,.19-.08,.36-.19,.52-.33,.15-.14,.29-.31,.4-.49v-.29h-1.67v-1.35h3.26v2.04c-.16,.34-.39,.66-.69,.97s-.66,.56-1.09,.76c-.43,.2-.93,.29-1.49,.29-.53,0-1.01-.09-1.45-.26-.43-.17-.81-.42-1.13-.74s-.56-.69-.73-1.13c-.17-.43-.25-.91-.25-1.43s.08-.99,.25-1.43c.17-.43,.41-.81,.73-1.13,.31-.32,.69-.56,1.12-.74,.43-.17,.91-.26,1.44-.26s.98,.08,1.42,.24,.81,.39,1.12,.68c.31,.3,.55,.65,.69,1.06l-1.63,.38Z"/>
        <path class="cls-1" d="M192.43,83.6h4.66v.84h-3.66v2.18h2.75v.84h-2.75v3.12h-1v-6.97Z"/>
        <path class="cls-1" d="M200.36,84.44h-.35l-2.19,6.13h-1.01l2.51-6.97h1.72l2.51,6.97h-1.02l-2.17-6.13Zm-2.27,3.52h4.06v.84h-4.06v-.84Z"/>
        <path class="cls-1" d="M203.84,87.09c0-.52,.09-1,.27-1.44,.18-.43,.43-.81,.75-1.12,.32-.31,.69-.56,1.11-.73,.42-.17,.88-.26,1.37-.26,.7,0,1.32,.16,1.87,.49s.96,.79,1.25,1.4l-.8,.29c-.16-.31-.36-.56-.61-.76-.25-.19-.51-.33-.81-.43-.29-.09-.59-.14-.89-.14-.47,0-.9,.11-1.28,.33-.38,.22-.68,.53-.9,.94s-.32,.88-.32,1.43,.11,1.02,.32,1.42,.51,.72,.9,.94c.38,.22,.81,.33,1.28,.33,.31,0,.61-.05,.91-.15,.3-.1,.58-.26,.84-.48s.47-.51,.64-.87l.8,.28c-.3,.7-.73,1.23-1.28,1.57s-1.19,.51-1.91,.51c-.49,0-.95-.09-1.37-.26-.42-.17-.79-.42-1.11-.74-.32-.32-.57-.69-.75-1.13-.18-.43-.27-.91-.27-1.43Z"/>
        <path class="cls-1" d="M211.75,83.6h1v6.97h-1v-6.97Z"/>
        <path class="cls-1" d="M215.36,83.6v6.13h3.19v.84h-4.18v-6.97h1Z"/>
        <path class="cls-1" d="M219.54,83.6h1v6.97h-1v-6.97Z"/>
        <path class="cls-1" d="M221.6,83.6h5.35v.84h-2.17v6.13h-1v-6.13h-2.18v-.84Z"/>
        <path class="cls-1" d="M228,83.6h1v6.97h-1v-6.97Z"/>
        <path class="cls-1" d="M235.28,84.44h-3.66v2.18h2.75v.84h-2.75v2.28h3.66v.84h-4.66v-6.97h4.66v.84Z"/>
        <path class="cls-1" d="M237.03,88.73c.04,.19,.12,.36,.24,.52,.12,.16,.29,.29,.5,.39,.21,.1,.47,.15,.79,.15,.46,0,.81-.11,1.03-.32,.22-.22,.33-.47,.33-.76,0-.24-.07-.44-.2-.59-.14-.16-.32-.29-.56-.4-.24-.11-.51-.21-.81-.29-.27-.08-.53-.16-.78-.25-.26-.09-.49-.2-.69-.34-.21-.14-.37-.31-.49-.53-.12-.22-.18-.49-.18-.81,0-.4,.1-.75,.29-1.05s.46-.52,.81-.67c.35-.16,.75-.23,1.21-.23,.38,0,.73,.05,1.04,.16,.31,.11,.56,.27,.77,.47,.21,.2,.36,.45,.46,.73l-.91,.33c-.04-.15-.12-.28-.25-.41s-.29-.23-.48-.31c-.19-.08-.41-.12-.65-.12-.25,0-.47,.03-.66,.11-.2,.08-.35,.2-.47,.35s-.17,.33-.17,.55c0,.23,.07,.42,.2,.55,.13,.13,.31,.24,.53,.33,.22,.09,.47,.17,.73,.25,.28,.09,.55,.18,.82,.28,.26,.1,.51,.23,.72,.38,.22,.15,.39,.34,.52,.57,.13,.23,.2,.52,.2,.86,0,.37-.09,.71-.26,1.02-.17,.31-.43,.55-.78,.74-.35,.19-.79,.28-1.31,.28-.43,0-.82-.07-1.16-.2-.35-.13-.63-.32-.85-.55-.22-.24-.37-.51-.44-.82l.91-.34Z"/>
      </g>
      <g>
        <path class="cls-1" d="M34.82,3.01h15.03V21.51h-15.03c-4.53,0-8.4,1.59-11.63,4.77-3.23,3.18-4.84,7.03-4.84,11.56v35.11H0V37.83C0,28.3,3.4,20.11,10.19,13.27,16.98,6.43,25.19,3.01,34.82,3.01Z"/>
        <path class="cls-1" d="M126.39,8.65c4.91-4.91,10.81-7.37,17.7-7.37s12.76,2.46,17.63,7.37c4.86,4.91,7.3,10.79,7.3,17.63v46.67h-18.35V26.27c0-1.83-.65-3.4-1.95-4.7-1.3-1.3-2.87-1.95-4.7-1.95s-3.4,.65-4.7,1.95c-1.3,1.3-1.95,2.87-1.95,4.7v23.41c0,6.84-2.43,12.71-7.3,17.63-4.87,4.91-10.74,7.37-17.63,7.37s-12.76-2.46-17.63-7.37c-4.86-4.91-7.3-10.79-7.3-17.63V26.27c0-1.83-.65-3.4-1.95-4.7-1.3-1.3-2.87-1.95-4.7-1.95s-3.4,.65-4.7,1.95c-1.3,1.3-1.95,2.87-1.95,4.7v46.67h-18.35V26.27c0-6.84,2.43-12.71,7.3-17.63,4.86-4.91,10.74-7.37,17.63-7.37s12.79,2.46,17.7,7.37c4.91,4.91,7.37,10.79,7.37,17.63v23.41c0,1.83,.65,3.37,1.95,4.62,1.3,1.25,2.87,1.88,4.7,1.88s3.37-.62,4.62-1.88,1.88-2.79,1.88-4.62V26.27c0-6.84,2.46-12.71,7.37-17.63Z"/>
        <path class="cls-1" d="M222.49,28.88c6.07,0,11.27,2.14,15.6,6.43,4.33,4.29,6.5,9.49,6.5,15.6s-2.17,11.32-6.5,15.6c-4.33,4.29-9.54,6.43-15.6,6.43h-43.06v-18.35h43.06c1.06,0,1.95-.36,2.67-1.08,.72-.72,1.08-1.59,1.08-2.6s-.36-1.88-1.08-2.6c-.72-.72-1.61-1.08-2.67-1.08h-20.95c-6.07,0-11.27-2.17-15.6-6.5-4.33-4.33-6.5-9.54-6.5-15.6s2.17-11.27,6.5-15.6c4.33-4.33,9.54-6.5,15.6-6.5h34.39V21.51h-34.39c-1.06,0-1.95,.36-2.67,1.08-.72,.72-1.08,1.59-1.08,2.6s.36,1.88,1.08,2.6c.72,.72,1.61,1.08,2.67,1.08h20.95Z"/>
      </g>
      <g>
        <path class="cls-1" d="M294.73,64.24c-.83,0-1.52-.17-1.86-.25-1.58-.38-2.44-1.19-3.14-1.84-.48-.45-.85-.8-1.52-1.11-1.55-.73-2.99-.8-3.76-.83-1.54-.07-2.73,.21-5.53,1.1-3.4,1.08-4.95,1.71-5.87,2.08-.64,.26-1.07,.43-1.6,.54-.08,.01-.51,.09-.97,.11-.09,0-9.09,.09-12.77-7.62-2.13-4.47-1.69-10.27,1-13.2l.24-.25c.28-.29,.57-.59,.88-1.11,.29-.48,.35-.78,.51-1.68,.12-.64,.26-1.44,.56-2.54,.34-1.21,.77-2.78,1.32-4.86,.62-2.31,.95-3.61,1.25-4.81,.23-.89,.44-1.73,.75-2.88,1.29-4.84,2-6.8,2.56-8.37,.5-1.38,.89-2.46,1.53-5.18l.18-.77c.47-2.04,.81-3.51,2.02-5.29,1.46-2.15,3.58-3.82,6.3-4.98l1.19-.5,.95,.87c4.2,3.86,8.03,7.98,11.4,12.26,3.15,4,4.51,6.38,5.42,8.18,.58,1.15,2.06,4.28,3.22,8.57,1.01,3.73,1.17,7.91,1.49,16.24l.03,.66c0,.11,.09,2.59-.31,8.57-.24,3.65-.45,6.81-2.95,8.24-.86,.49-1.77,.64-2.55,.64Zm-10.71-8.04c.21,0,.41,0,.63,.01,.98,.04,3.01,.14,5.29,1.21,1.23,.58,1.96,1.26,2.54,1.81,.58,.55,.81,.74,1.34,.87,.27,.06,1.08,.26,1.49,.03,.64-.37,.84-3.4,.95-5.03,.38-5.76,.3-8.13,.3-8.16l-.03-.66c-.31-8.03-.47-12.06-1.36-15.35-1.06-3.94-2.4-6.77-2.92-7.81-.82-1.62-2.06-3.79-4.99-7.51-2.97-3.77-6.33-7.42-9.98-10.87-1.45,.79-2.59,1.79-3.41,3-.79,1.16-1,2.09-1.43,3.94l-.18,.79c-.69,2.94-1.14,4.19-1.66,5.62-.54,1.5-1.22,3.36-2.46,8.04-.3,1.13-.51,1.96-.73,2.84-.31,1.21-.64,2.52-1.27,4.86-.56,2.1-.99,3.67-1.33,4.89-.26,.92-.38,1.59-.48,2.18-.18,.98-.34,1.91-1.03,3.04-.55,.91-1.08,1.46-1.44,1.82l-.17,.17c-1.41,1.54-1.89,5.52-.34,8.77,2.51,5.26,8.98,5.35,9.04,5.35,.14,0,.34-.04,.37-.04,.09-.02,.36-.13,.81-.31,.98-.4,2.61-1.06,6.17-2.19,2.81-.89,4.42-1.3,6.3-1.3Z"/>
        <path class="cls-1" d="M259.4,50.72l-.87-1.8c.43-.21,1.06-.52,1.79-.93,7.47-4.13,11.76-10.09,13.25-12.46,4.66-7.39,5.52-13.39,5.42-17.12-.05-1.94-.38-4.61-.4-4.72-.42-3.37-1.12-6.72-2.09-9.96l1.92-.58c1,3.34,1.73,6.8,2.16,10.29,.01,.11,.36,2.88,.41,4.92,.1,4.01-.81,10.42-5.73,18.24-1.58,2.5-6.09,8.79-13.97,13.14-.78,.43-1.44,.76-1.9,.98Z"/>
        <path class="cls-1" d="M298.01,60.54l-2-.02c.06-5.54-.51-16.34-5.05-26.38-3.16-6.99-7.77-12.46-7.82-12.51-1.15-1.36-2.38-2.66-3.66-3.88l1.38-1.45c1.33,1.27,2.61,2.63,3.81,4.04,.2,.23,4.84,5.74,8.11,12.98,4.7,10.39,5.3,21.52,5.23,27.22Z"/>
        <path class="cls-1" d="M291.02,91.01l-3.9-.88c.77-3.38,1.93-6.78,3.07-10.07,2-5.81,4.06-11.82,3.83-17.6l4-.17c.27,6.53-1.92,12.91-4.04,19.07-1.15,3.34-2.23,6.49-2.95,9.65Z"/>
        <path class="cls-1" d="M265.55,90.61c-.42-2-.89-4.01-1.35-6.02-1.84-7.99-3.74-16.25-3.41-24.62l4,.15c-.3,7.84,1.54,15.83,3.31,23.57,.47,2.03,.93,4.06,1.36,6.09l-3.91,.83Z"/>
      </g>
    </g>
  </g>
</svg>